<svg xmlns="http://www.w3.org/2000/svg" xmlns:xlink="http://www.w3.org/1999/xlink" viewBox="0 0 826.03 834.18"><style/><g id="Calque_2"><defs><path id="SVGID_1_" d="M11.94 19.69h814.09v814.09H11.94z"/></defs><clipPath id="SVGID_2_"><use xlink:href="#SVGID_1_" overflow="visible"/></clipPath><path d="M131.44 483.9c1.72 1.73 3.45 4.02 4.02 6.89l28.15 95.94 28.15-95.94c.57-2.87 2.3-5.16 4.02-6.89 1.72-1.72 4.02-2.29 7.47-2.29 2.87 0 5.75 1.15 8.04 2.87 2.3 1.72 3.45 4.02 4.02 6.89l19.53 119.5-15.51 2.87-16.09-112.03-31.6 106.86h-15.51l-31.6-106.86-15.51 105.13c-.57 2.3-1.15 4.03-2.87 5.18-1.72 1.14-3.45 1.72-5.75 1.72s-4.02-.58-5.17-1.72c-1.72-1.15-2.3-2.87-2.3-5.18v-2.87l18.96-112.6c.57-2.87 1.72-5.18 4.02-6.89 2.3-1.72 4.6-2.87 8.04-2.87 3.47-.01 5.77 1.15 7.49 2.29" clip-path="url(#SVGID_2_)" fill="white"/><defs><path id="SVGID_3_" d="M11.94 19.69h814.09v814.09H11.94z"/></defs><clipPath id="SVGID_4_"><use xlink:href="#SVGID_3_" overflow="visible"/></clipPath><path d="M303.22 483.9c1.72 1.73 2.87 4.02 4.02 7.47l45.39 118.35-15.51 4.6-11.49-29.87h-59.17l-9.19 24.13c-.57 1.72-1.72 2.87-2.87 4.02-1.15 1.14-2.87 1.72-4.6 1.72-2.3 0-4.02-.58-5.17-2.29-1.15-1.73-2.3-3.45-2.3-5.17 0-1.15.57-2.87 1.15-4.6l41.36-111.46c1.15-2.29 2.3-4.6 4.02-6.89 1.72-1.72 4.02-2.87 6.89-2.87 3.45.55 5.75 1.72 7.47 2.86m18.38 87.32l-25.28-70.67-25.85 70.67h51.13z" clip-path="url(#SVGID_4_)" fill="white"/><defs><path id="SVGID_5_" d="M11.94 19.69h814.09v814.09H11.94z"/></defs><clipPath id="SVGID_6_"><use xlink:href="#SVGID_5_" overflow="visible"/></clipPath><path d="M362.97 489.07c0-2.3.57-4.02 2.3-5.17 1.72-1.14 3.45-2.29 5.17-2.29 2.3 0 4.02.57 5.75 2.29 1.72 1.73 2.3 3.45 2.3 5.75v48.26l59.17-55.73 10.92 10.34-55.73 52.28 58.6 56.87c1.72 1.73 2.87 4.02 2.87 6.33 0 2.29-.57 3.45-2.3 5.16-1.72 1.73-2.87 1.73-5.16 1.73-2.3 0-4.6-1.15-6.33-2.87l-62.05-61.47v62.05h-15.51V489.07z" clip-path="url(#SVGID_6_)" fill="white"/><defs><path id="SVGID_7_" d="M11.94 19.69h814.09v814.09H11.94z"/></defs><clipPath id="SVGID_8_"><use xlink:href="#SVGID_7_" overflow="visible"/></clipPath><path d="M468.11 489.64c0-2.29.57-4.02 2.29-5.75 1.72-1.72 3.45-2.29 5.75-2.29s4.02.57 5.17 2.29c1.15 1.73 2.29 3.45 2.29 5.75v122.94h-15.5V489.64z" clip-path="url(#SVGID_8_)" fill="white"/><defs><path id="SVGID_9_" d="M11.94 19.69h814.09v814.09H11.94z"/></defs><clipPath id="SVGID_10_"><use xlink:href="#SVGID_9_" overflow="visible"/></clipPath><path d="M511.77 489.64c0-2.29.57-4.02 2.3-5.75 1.72-1.72 3.45-2.29 5.75-2.29 2.87 0 5.16 1.15 6.32 3.45l69.52 101.12v-96.53c0-2.29.58-4.02 2.3-5.75 1.72-1.72 3.45-2.29 5.17-2.29 2.29 0 4.02.57 5.75 2.29 1.72 1.73 2.29 3.45 2.29 5.75v117.19c0 2.3-.57 4.03-2.29 5.75-1.73 1.73-3.45 2.3-5.75 2.3-2.87 0-5.17-1.15-6.33-3.45l-69.51-101.68v102.83h-15.51V489.64z" clip-path="url(#SVGID_10_)" fill="white"/><defs><path id="SVGID_11_" d="M11.94 19.69h814.09v814.09H11.94z"/></defs><clipPath id="SVGID_12_"><use xlink:href="#SVGID_11_" overflow="visible"/></clipPath><path d="M686.42 483.9c1.72 1.73 2.87 4.02 4.02 7.47l45.39 118.35-15.51 4.6-11.49-29.87h-59.17l-9.19 24.13c-.58 1.72-1.73 2.87-2.87 4.02-1.15 1.14-2.87 1.72-4.6 1.72-2.29 0-4.02-.58-5.16-2.29-1.15-1.73-2.3-3.45-2.3-5.17 0-1.15.58-2.87 1.15-4.6l41.36-111.46c1.15-2.29 2.29-4.6 4.02-6.89 1.72-1.72 4.02-2.87 6.89-2.87 3.44.55 5.74 1.72 7.46 2.86m18.38 87.32l-25.28-70.67-25.85 70.67h51.13z" clip-path="url(#SVGID_12_)" fill="white"/><defs><path id="SVGID_13_" d="M11.94 19.69h814.09v814.09H11.94z"/></defs><clipPath id="SVGID_14_"><use xlink:href="#SVGID_13_" overflow="visible"/></clipPath><path d="M168.78 765.98c-1.72 2.29-3.45 4.6-5.75 6.32-2.3 2.3-4.6 3.45-7.47 5.17-2.87 1.15-5.75 2.29-8.62 3.45-2.87 1.15-6.32 1.72-9.19 1.72-2.87.59-6.32.59-8.62.59-10.92 0-20.68-2.3-29.87-6.89-8.62-4.6-16.09-11.49-21.26-20.11-4.02-5.75-6.89-12.06-9.19-18.96s-3.45-13.79-3.45-20.69c0-8.62 1.15-16.65 4.02-24.12 2.87-7.48 6.32-14.36 11.49-20.11 4.6-5.75 10.92-10.92 17.81-14.94 6.89-4.02 14.36-6.32 22.98-6.89h4.02c3.45 0 6.89.57 10.92 1.14 4.02.58 8.04 1.73 11.49 3.45 4.02 1.72 7.47 2.87 10.92 5.16 3.45 1.73 6.32 4.02 8.62 6.33.57.57 1.15 1.14 1.72 2.29.57.58 0 1.73 0 2.3l-9.19 18.96c-.57 1.15-2.3 1.72-3.45 2.3-1.72 0-2.87 0-4.6-.58-3.45-2.87-6.89-5.16-10.92-6.89-3.45-1.73-7.47-2.87-11.49-2.87-1.15 0-2.3 0-4.02.57-3.45.57-6.89 2.3-9.77 4.02-2.87 2.29-5.17 4.6-7.47 7.47-1.72 2.87-3.45 6.32-4.6 10.34-1.15 4.02-1.72 8.04-1.72 12.07 0 4.6.57 8.62 1.72 12.63 1.15 4.02 2.3 8.04 4.6 10.92 2.3 3.45 4.6 5.75 8.04 7.47 3.45 1.72 6.89 2.87 10.92 2.87 2.87 0 6.32-.57 8.62-1.72 2.87-1.15 5.17-2.3 7.47-2.87 1.72-1.15 4.02-1.72 5.75-2.3 1.72-.57 4.02-1.14 5.75-1.14 4.6 0 8.62 1.14 11.49 4.02 3.45 2.87 4.6 6.33 4.6 10.92 0 4.01-.57 6.31-2.3 8.6" clip-path="url(#SVGID_14_)" fill="white"/><defs><path id="SVGID_15_" d="M11.94 19.69h814.09v814.09H11.94z"/></defs><clipPath id="SVGID_16_"><use xlink:href="#SVGID_15_" overflow="visible"/></clipPath><path d="M294.6 742.43c-2.87 8.04-7.47 14.94-13.21 21.26-5.75 6.31-12.06 10.92-19.53 14.36-7.47 3.45-16.09 5.17-25.28 5.17-9.19 0-17.81-1.72-25.28-5.17-7.47-3.45-14.36-8.62-19.53-14.36-5.75-6.32-9.77-13.21-13.21-21.26-2.87-8.04-4.6-16.66-4.6-25.27 0-9.2 1.72-17.24 4.6-25.28 2.87-8.04 7.47-14.94 13.21-21.26s12.06-10.91 19.53-14.36c7.47-3.45 16.09-5.16 25.28-5.16s17.24 1.72 25.28 5.16c7.47 3.45 14.36 8.62 19.53 14.36 5.75 6.33 9.77 13.22 13.21 21.26 2.87 8.04 4.6 16.66 4.6 25.28 0 8.61-1.72 17.23-4.6 25.27m-34.47-37.92c-1.15-4.6-2.3-8.04-4.6-11.49-2.3-3.45-4.6-6.32-8.04-8.04-3.45-2.29-6.89-2.87-11.49-2.87s-8.04 1.15-10.92 2.87c-2.87 2.3-5.75 4.6-7.47 8.04-1.72 3.45-3.45 6.89-4.6 11.49-1.15 4.02-1.72 8.62-1.72 12.64 0 4.6.57 8.62 1.72 12.64 1.15 4.02 2.3 8.04 4.6 11.49 2.3 3.45 4.6 6.32 7.47 8.04 2.87 2.3 6.89 2.87 10.92 2.87s8.04-1.15 10.92-2.87c3.45-1.72 5.75-4.6 8.04-8.04 2.3-3.45 4.02-6.89 4.6-10.92 1.15-4.02 1.72-8.62 1.72-12.64.58-4.59 0-8.61-1.15-13.21" clip-path="url(#SVGID_16_)" fill="white"/><defs><path id="SVGID_17_" d="M11.94 19.69h814.09v814.09H11.94z"/></defs><clipPath id="SVGID_18_"><use xlink:href="#SVGID_17_" overflow="visible"/></clipPath><path d="M391.12 786.09c-1.15.57-2.3.57-4.02.57-1.15 0-2.3-.57-3.45-1.14l-32.17-42.51v23.55c0 2.3-.57 4.6-1.15 6.9-1.15 2.3-2.3 4.02-4.02 5.17-1.72 1.72-3.45 2.87-5.75 3.45-2.3 1.15-4.6 1.15-6.89 1.15s-4.6-.58-6.89-1.15c-2.3-1.15-4.02-2.3-5.75-4.03-1.72-1.72-2.87-3.44-4.02-5.75-1.15-2.29-1.72-4.59-1.72-6.89v-110.3c0-1.15.57-2.3 1.72-2.87 1.15-.59 2.3-1.15 4.02-.59h44.24c5.75 1.15 11.49 2.3 16.66 4.6s9.77 4.6 13.79 8.04c4.02 3.45 6.89 7.46 9.19 12.64 2.3 5.16 3.45 10.91 3.45 17.24 0 4.6-.57 8.62-2.3 12.06-1.15 3.46-3.45 6.9-5.75 9.77s-5.17 5.17-8.62 7.46c-3.45 2.3-6.89 3.46-10.34 4.6l29.87 37.35c1.15 1.14 1.72 1.72 1.15 2.87-.57 1.14-1.15 1.72-2.3 2.29l-18.95 15.52zm-20.11-99.38c-1.72-2.3-3.45-3.46-6.32-3.46h-12.64v21.26h13.21c2.3 0 4.02-1.15 5.75-2.87 1.72-2.3 2.3-4.6 2.3-7.47s-.57-5.74-2.3-7.46" clip-path="url(#SVGID_18_)" fill="white"/><defs><path id="SVGID_19_" d="M11.94 19.69h814.09v814.09H11.94z"/></defs><clipPath id="SVGID_20_"><use xlink:href="#SVGID_19_" overflow="visible"/></clipPath><path d="M523.83 714.28c-2.29 5.16-5.16 9.77-9.19 13.78-4.02 4.02-8.62 6.89-13.79 9.2-5.16 2.29-10.91 3.45-17.24 4.02-1.14 0-4.02.58-7.47.58h-9.77v9.19c0 3.45 0 6.33-.57 9.77 0 3.45-.57 6.32-1.15 8.62-.57 2.87-1.15 4.6-1.72 5.75-1.15 2.3-3.45 4.02-5.75 5.75-2.3 1.72-5.17 2.3-8.62 2.3-2.3 0-5.17-.58-6.89-1.73-2.29-1.14-4.02-2.29-5.75-4.02-1.72-1.73-2.87-3.45-4.02-5.75-1.14-2.3-1.14-4.6-1.14-6.89V655.1c0-1.15.57-1.73 1.72-2.87 1.15-.58 2.29-1.15 3.45-1.15h26.42c5.16 0 10.91 0 16.09.57 5.16.58 10.34 1.15 15.51 2.87 8.04 1.72 15.51 5.75 21.25 11.49 5.75 5.75 9.77 13.21 10.92 22.41.57 2.29.57 4.6.57 7.47.02 7.47-1.13 13.22-2.86 18.39m-36.19-27c-2.29-2.3-4.6-4.02-8.04-4.02h-12.64v27h12.64c2.87 0 5.75-1.15 8.04-4.02 2.3-2.87 3.45-5.75 3.45-9.19 0-4.03-1.15-6.9-3.45-9.77" clip-path="url(#SVGID_20_)" fill="white"/><defs><path id="SVGID_21_" d="M11.94 19.69h814.09v814.09H11.94z"/></defs><clipPath id="SVGID_22_"><use xlink:href="#SVGID_21_" overflow="visible"/></clipPath><path d="M650.23 751.62c-2.87 6.89-6.89 12.06-12.06 17.24-5.17 4.6-10.92 8.03-17.81 10.9-6.89 2.3-14.36 3.46-22.41 3.46-8.04 0-15.51-1.15-22.41-3.46-6.89-2.29-13.21-5.75-17.81-10.9-4.6-5.17-9.19-10.34-12.06-17.24-2.87-6.89-4.6-14.36-4.6-22.98V655.1c0-1.15.58-1.74 1.73-2.87 1.15-.57 2.3-1.15 4.02-1.15h25.85c1.15 0 2.87.57 3.45 1.15 1.15.57 1.72 1.72 1.72 2.87v74.11c0 6.89 1.72 12.64 5.75 16.66 4.02 4.02 8.62 6.32 14.94 6.32 6.33 0 10.92-2.29 14.94-6.32 3.45-4.02 5.75-9.77 5.75-16.66v-61.48c0-2.29.57-4.59 1.15-6.88 1.14-2.3 2.29-4.02 4.02-5.75 1.73-1.74 3.45-2.87 5.75-4.02 2.3-1.15 4.6-1.15 6.89-1.15 2.3 0 5.17.57 6.89 1.72 2.3 1.15 4.02 2.3 5.75 4.02s2.87 3.44 4.02 5.75c1.15 2.3 1.15 4.6 1.15 6.89v60.9c-.59 8.62-1.74 16.09-4.61 22.41" clip-path="url(#SVGID_22_)" fill="white"/><defs><path id="SVGID_23_" d="M11.94 19.69h814.09v814.09H11.94z"/></defs><clipPath id="SVGID_24_"><use xlink:href="#SVGID_23_" overflow="visible"/></clipPath><path d="M734.68 703.94c5.17 1.72 9.77 4.6 14.36 7.47s8.04 6.89 10.92 11.49c2.87 4.6 4.02 9.77 4.02 16.66 0 4.6-.58 8.62-2.3 13.22-1.72 4.02-3.45 8.03-6.32 12.06-4.6 6.33-10.92 11.49-17.82 14.36-6.9 2.87-14.36 4.59-22.4 4.59-2.87 0-6.33-.57-10.35-1.14-4.02-.58-8.04-1.74-12.63-2.87-4.02-1.15-8.62-2.3-12.07-4.02-4.02-1.15-7.47-2.87-9.77-4.02-1.14 0-1.72-.57-2.29-1.72-.58-1.15-.58-1.72-.58-2.3.58-2.87 1.15-5.75 1.73-8.04.57-2.3 1.14-4.02 1.72-6.33 0-1.15.57-1.72.57-2.29 0-.58.58-1.15.58-1.74 0-.57.57-1.14.57-1.72 0-.57.57-1.15.57-1.72v-1.15.58-.59c0-1.72.58-2.29 2.3-3.45 1.72-.59 3.45-.59 5.17 0 .57 0 1.72.57 2.87 1.15 1.14.57 2.87 1.14 4.6 1.72 1.72.57 3.45 1.15 4.6 1.72 1.72.57 2.87 1.15 4.02 1.15 3.45 1.15 6.89 2.29 9.77 3.45 2.87 1.15 6.32 1.72 8.62 1.72 1.14 0 2.87-.57 4.02-1.14 1.15-.58 2.87-1.15 3.45-2.3 1.15-1.15 1.72-2.3 2.87-3.45 1.15-1.15 1.15-2.87 1.15-4.61 0-1.14-.58-2.29-1.15-2.87-.58-.57-1.72-1.72-2.87-2.29-1.15-.59-2.3-1.15-3.45-1.72-1.14-.58-2.29-1.15-2.87-1.15l-8.62-3.46c-4.6-1.72-9.19-3.44-13.21-5.16-4.6-1.72-8.62-4.02-12.06-6.89-3.45-2.87-6.33-6.32-8.62-10.34-2.3-4.02-3.45-9.2-3.45-15.51 0-6.32 1.15-12.06 4.02-17.24 2.87-5.18 6.33-9.19 10.92-12.64 4.6-3.45 9.77-5.75 14.94-8.04 5.75-1.74 11.49-2.87 17.24-2.87 2.87 0 6.89.57 10.92 1.14 4.02.59 8.62 2.3 12.64 4.03 4.02 1.72 7.47 4.02 10.34 6.89s4.02 6.31 4.02 10.34c0 4.02-1.73 7.46-4.6 10.92-2.87 2.87-6.89 4.6-11.49 4.6-2.29 0-4.6-.57-6.89-1.15-2.3-.57-4.02-1.72-6.33-2.29-2.29-.58-4.02-1.74-6.32-2.3-2.3-.57-4.6-1.15-6.89-1.15-1.72 0-3.45.58-4.6 1.72-1.72 1.15-2.3 2.87-2.3 5.18 0 1.15.58 2.3 1.15 3.44.57 1.15 1.72 1.73 2.3 2.3 1.14.57 2.29 1.15 3.45 1.72 1.15.58 2.3 1.15 3.45 1.15.58.57 1.15.57 1.73.57l-.57-.58h.58c6.3 2.89 11.47 4.61 16.64 6.91" clip-path="url(#SVGID_24_)" fill="white"/><defs><path id="SVGID_25_" d="M11.94 19.69h814.09v814.09H11.94z"/></defs><clipPath id="SVGID_26_"><use xlink:href="#SVGID_25_" overflow="visible"/></clipPath><path d="M580.14 340.84c-13.79-10.92-27-21.83-40.22-33.32-5.75-4.6-5.75-5.17-2.3-11.49 8.04-14.36 13.79-28.73 17.24-44.81 5.17-24.13 4.6-48.26-3.45-72.39-2.87-8.04-6.33-14.94-10.92-21.83-1.15-2.3-2.3-4.02 0-6.32 6.32-6.32 12.06-13.21 18.96-20.11 9.77-9.77 19.53-19.53 28.73-29.87 9.77-11.49 7.47-25.28-5.16-32.75-4.02-2.3-7.47-4.02-11.49-6.32-9.77-5.17-20.11-4.6-29.87-.57-8.04 3.45-13.79 9.19-19.53 15.51l-33.9 32.75c-2.3 1.15-2.87 1.72-4.6 1.72-2.29 0-4.02-.57-6.32-1.15-84.45-13.21-132.13 36.19-132.13 36.19-1.72 2.3-4.03 1.72-6.32 0-5.75-4.6-12.07-9.19-17.82-13.79-9.19-7.47-16.08-8.62-26.42-2.3-6.32 4.02-10.34 10.34-15.51 15.51-2.3 2.87-4.6 5.75-6.32 9.19-5.17 8.62-4.6 17.81 2.29 25.28 6.33 6.32 12.65 12.06 18.97 18.38 2.3 2.3 2.87 4.6 1.14 6.89-2.29 4.02-4.02 8.04-5.75 11.49-14.94 33.9-18.96 68.37-6.89 103.99 1.72 5.17.57 8.62-2.87 12.06-10.35 10.92-20.68 20.11-28.73 31.6-7.47 9.77-7.47 21.26-.57 31.02 2.3 3.45 5.17 6.89 8.04 10.34 7.47 8.62 19.53 9.19 28.15 1.15 9.2-8.04 17.24-17.24 25.85-25.28 10.35-9.77 6.9-9.77 20.11-2.87 21.26 10.34 43.66 13.79 66.64 12.06 24.7-2.3 47.1-10.92 68.94-22.98 6.32-3.45 6.89-3.45 12.06 1.72l9.19 8.04c8.62 8.04 17.24 16.09 26.43 23.56 12.06 10.34 30.45 10.92 43.09 1.72 8.62-6.32 16.09-13.21 23.56-20.68 11.48-12.03 11.48-30.42-2.3-41.34m-120.65-41.93c-31.6 32.75-87.9 44.81-117.2 12.64-31.02-33.32-20.11-75.84 2.3-106.28 22.4-30.45 78.13-63.2 121.22-29.87 40.79 31.58 25.28 90.76-6.32 123.51" clip-path="url(#SVGID_26_)" fill="#d0dd2a"/></g></svg>
