<?xml version="1.0" encoding="utf-8"?>
<!-- Generator: Adobe Illustrator 27.9.0, SVG Export Plug-In . SVG Version: 6.00 Build 0)  -->
<svg version="1.1" id="Calque_1" xmlns="http://www.w3.org/2000/svg" xmlns:xlink="http://www.w3.org/1999/xlink" x="0px" y="0px"
	 viewBox="0 0 138.5 171.4" style="enable-background:new 0 0 138.5 171.4;" xml:space="preserve">
<style type="text/css">
	.st0{clip-path:url(#SVGID_00000054239510835426250860000016767732143638519470_);fill:#1B1237;}
	.st1{clip-path:url(#SVGID_00000054239510835426250860000016767732143638519470_);fill:#50AF55;}
	.st2{fill:#50AF55;}
	.st3{fill-rule:evenodd;clip-rule:evenodd;fill:#50AF55;}
	.st4{fill:#FFFFFF;}
</style>
<g>
	<defs>
		<rect id="SVGID_1_" width="141.7" height="141.7"/>
	</defs>
	<clipPath id="SVGID_00000079480847663112015860000008454080158564299197_">
		<use xlink:href="#SVGID_1_"  style="overflow:visible;"/>
	</clipPath>
	<path style="clip-path:url(#SVGID_00000079480847663112015860000008454080158564299197_);fill:#1B1237;" d="M20.8,80.8
		c0.3,0.3,0.6,0.7,0.7,1.2l4.9,16.7L31.3,82c0.1-0.5,0.4-0.9,0.7-1.2c0.3-0.3,0.7-0.4,1.3-0.4c0.5,0,1,0.2,1.4,0.5
		c0.4,0.3,0.6,0.7,0.7,1.2l3.4,20.8l-2.7,0.5l-2.8-19.5l-5.5,18.6h-2.7l-5.5-18.6l-2.7,18.3c-0.1,0.4-0.2,0.7-0.5,0.9
		c-0.3,0.2-0.6,0.3-1,0.3c-0.4,0-0.7-0.1-0.9-0.3c-0.3-0.2-0.4-0.5-0.4-0.9v-0.5l3.3-19.6c0.1-0.5,0.3-0.9,0.7-1.2
		c0.4-0.3,0.8-0.5,1.4-0.5C20.1,80.4,20.5,80.6,20.8,80.8"/>
	<path style="clip-path:url(#SVGID_00000079480847663112015860000008454080158564299197_);fill:#1B1237;" d="M50.7,80.8
		c0.3,0.3,0.5,0.7,0.7,1.3l7.9,20.6l-2.7,0.8l-2-5.2H44.3l-1.6,4.2c-0.1,0.3-0.3,0.5-0.5,0.7c-0.2,0.2-0.5,0.3-0.8,0.3
		c-0.4,0-0.7-0.1-0.9-0.4c-0.2-0.3-0.4-0.6-0.4-0.9c0-0.2,0.1-0.5,0.2-0.8L47.5,82c0.2-0.4,0.4-0.8,0.7-1.2c0.3-0.3,0.7-0.5,1.2-0.5
		C50,80.4,50.4,80.6,50.7,80.8 M53.9,96l-4.4-12.3L45,96H53.9z"/>
	<path style="clip-path:url(#SVGID_00000079480847663112015860000008454080158564299197_);fill:#1B1237;" d="M61.1,81.7
		c0-0.4,0.1-0.7,0.4-0.9c0.3-0.2,0.6-0.4,0.9-0.4c0.4,0,0.7,0.1,1,0.4c0.3,0.3,0.4,0.6,0.4,1v8.4l10.3-9.7l1.9,1.8l-9.7,9.1
		l10.2,9.9c0.3,0.3,0.5,0.7,0.5,1.1c0,0.4-0.1,0.6-0.4,0.9c-0.3,0.3-0.5,0.3-0.9,0.3c-0.4,0-0.8-0.2-1.1-0.5L63.8,92.4v10.8h-2.7
		V81.7z"/>
	<path style="clip-path:url(#SVGID_00000079480847663112015860000008454080158564299197_);fill:#1B1237;" d="M79.4,81.8
		c0-0.4,0.1-0.7,0.4-1c0.3-0.3,0.6-0.4,1-0.4c0.4,0,0.7,0.1,0.9,0.4c0.2,0.3,0.4,0.6,0.4,1v21.4h-2.7V81.8z"/>
	<path style="clip-path:url(#SVGID_00000079480847663112015860000008454080158564299197_);fill:#1B1237;" d="M87,81.8
		c0-0.4,0.1-0.7,0.4-1c0.3-0.3,0.6-0.4,1-0.4c0.5,0,0.9,0.2,1.1,0.6l12.1,17.6V81.8c0-0.4,0.1-0.7,0.4-1c0.3-0.3,0.6-0.4,0.9-0.4
		c0.4,0,0.7,0.1,1,0.4c0.3,0.3,0.4,0.6,0.4,1v20.4c0,0.4-0.1,0.7-0.4,1c-0.3,0.3-0.6,0.4-1,0.4c-0.5,0-0.9-0.2-1.1-0.6L89.7,85.3
		v17.9H87V81.8z"/>
	<path style="clip-path:url(#SVGID_00000079480847663112015860000008454080158564299197_);fill:#1B1237;" d="M117.4,80.8
		c0.3,0.3,0.5,0.7,0.7,1.3l7.9,20.6l-2.7,0.8l-2-5.2H111l-1.6,4.2c-0.1,0.3-0.3,0.5-0.5,0.7c-0.2,0.2-0.5,0.3-0.8,0.3
		c-0.4,0-0.7-0.1-0.9-0.4c-0.2-0.3-0.4-0.6-0.4-0.9c0-0.2,0.1-0.5,0.2-0.8l7.2-19.4c0.2-0.4,0.4-0.8,0.7-1.2
		c0.3-0.3,0.7-0.5,1.2-0.5C116.7,80.4,117.1,80.6,117.4,80.8 M120.6,96l-4.4-12.3L111.7,96H120.6z"/>
	<path style="clip-path:url(#SVGID_00000079480847663112015860000008454080158564299197_);fill:#1B1237;" d="M27.3,129.9
		c-0.3,0.4-0.6,0.8-1,1.1c-0.4,0.4-0.8,0.6-1.3,0.9c-0.5,0.2-1,0.4-1.5,0.6c-0.5,0.2-1.1,0.3-1.6,0.3c-0.5,0.1-1.1,0.1-1.5,0.1
		c-1.9,0-3.6-0.4-5.2-1.2c-1.5-0.8-2.8-2-3.7-3.5c-0.7-1-1.2-2.1-1.6-3.3c-0.4-1.2-0.6-2.4-0.6-3.6c0-1.5,0.2-2.9,0.7-4.2
		c0.5-1.3,1.1-2.5,2-3.5c0.8-1,1.9-1.9,3.1-2.6c1.2-0.7,2.5-1.1,4-1.2h0.7c0.6,0,1.2,0.1,1.9,0.2c0.7,0.1,1.4,0.3,2,0.6
		c0.7,0.3,1.3,0.5,1.9,0.9c0.6,0.3,1.1,0.7,1.5,1.1c0.1,0.1,0.2,0.2,0.3,0.4c0.1,0.1,0,0.3,0,0.4l-1.6,3.3c-0.1,0.2-0.4,0.3-0.6,0.4
		c-0.3,0-0.5,0-0.8-0.1c-0.6-0.5-1.2-0.9-1.9-1.2c-0.6-0.3-1.3-0.5-2-0.5c-0.2,0-0.4,0-0.7,0.1c-0.6,0.1-1.2,0.4-1.7,0.7
		c-0.5,0.4-0.9,0.8-1.3,1.3c-0.3,0.5-0.6,1.1-0.8,1.8c-0.2,0.7-0.3,1.4-0.3,2.1c0,0.8,0.1,1.5,0.3,2.2c0.2,0.7,0.4,1.4,0.8,1.9
		c0.4,0.6,0.8,1,1.4,1.3c0.6,0.3,1.2,0.5,1.9,0.5c0.5,0,1.1-0.1,1.5-0.3c0.5-0.2,0.9-0.4,1.3-0.5c0.3-0.2,0.7-0.3,1-0.4
		c0.3-0.1,0.7-0.2,1-0.2c0.8,0,1.5,0.2,2,0.7c0.6,0.5,0.8,1.1,0.8,1.9C27.7,129.1,27.6,129.5,27.3,129.9"/>
	<path style="clip-path:url(#SVGID_00000079480847663112015860000008454080158564299197_);fill:#1B1237;" d="M49.2,125.8
		c-0.5,1.4-1.3,2.6-2.3,3.7c-1,1.1-2.1,1.9-3.4,2.5c-1.3,0.6-2.8,0.9-4.4,0.9c-1.6,0-3.1-0.3-4.4-0.9s-2.5-1.5-3.4-2.5
		c-1-1.1-1.7-2.3-2.3-3.7c-0.5-1.4-0.8-2.9-0.8-4.4c0-1.6,0.3-3,0.8-4.4c0.5-1.4,1.3-2.6,2.3-3.7c1-1.1,2.1-1.9,3.4-2.5
		c1.3-0.6,2.8-0.9,4.4-0.9c1.6,0,3,0.3,4.4,0.9c1.3,0.6,2.5,1.5,3.4,2.5c1,1.1,1.7,2.3,2.3,3.7c0.5,1.4,0.8,2.9,0.8,4.4
		S49.7,124.4,49.2,125.8 M43.2,119.2c-0.2-0.8-0.4-1.4-0.8-2c-0.4-0.6-0.8-1.1-1.4-1.4c-0.6-0.4-1.2-0.5-2-0.5
		c-0.8,0-1.4,0.2-1.9,0.5c-0.5,0.4-1,0.8-1.3,1.4c-0.3,0.6-0.6,1.2-0.8,2c-0.2,0.7-0.3,1.5-0.3,2.2c0,0.8,0.1,1.5,0.3,2.2
		c0.2,0.7,0.4,1.4,0.8,2c0.4,0.6,0.8,1.1,1.3,1.4c0.5,0.4,1.2,0.5,1.9,0.5c0.7,0,1.4-0.2,1.9-0.5c0.6-0.3,1-0.8,1.4-1.4
		c0.4-0.6,0.7-1.2,0.8-1.9c0.2-0.7,0.3-1.5,0.3-2.2C43.5,120.7,43.4,120,43.2,119.2"/>
	<path style="clip-path:url(#SVGID_00000079480847663112015860000008454080158564299197_);fill:#1B1237;" d="M66,133.4
		c-0.2,0.1-0.4,0.1-0.7,0.1c-0.2,0-0.4-0.1-0.6-0.2l-5.6-7.4v4.1c0,0.4-0.1,0.8-0.2,1.2c-0.2,0.4-0.4,0.7-0.7,0.9
		c-0.3,0.3-0.6,0.5-1,0.6c-0.4,0.2-0.8,0.2-1.2,0.2s-0.8-0.1-1.2-0.2c-0.4-0.2-0.7-0.4-1-0.7c-0.3-0.3-0.5-0.6-0.7-1
		c-0.2-0.4-0.3-0.8-0.3-1.2v-19.2c0-0.2,0.1-0.4,0.3-0.5c0.2-0.1,0.4-0.2,0.7-0.1h0.5H55h0.9H57h1.7h1.5H61h0.5c1,0.2,2,0.4,2.9,0.8
		c0.9,0.4,1.7,0.8,2.4,1.4c0.7,0.6,1.2,1.3,1.6,2.2c0.4,0.9,0.6,1.9,0.6,3c0,0.8-0.1,1.5-0.4,2.1c-0.2,0.6-0.6,1.2-1,1.7
		c-0.4,0.5-0.9,0.9-1.5,1.3c-0.6,0.4-1.2,0.6-1.8,0.8l5.2,6.5c0.2,0.2,0.3,0.3,0.2,0.5c-0.1,0.2-0.2,0.3-0.4,0.4L66,133.4z
		 M62.5,116.1c-0.3-0.4-0.6-0.6-1.1-0.6h-2.2v3.7h2.3c0.4,0,0.7-0.2,1-0.5c0.3-0.4,0.4-0.8,0.4-1.3S62.8,116.4,62.5,116.1"/>
	<path style="clip-path:url(#SVGID_00000079480847663112015860000008454080158564299197_);fill:#1B1237;" d="M89.1,120.9
		c-0.4,0.9-0.9,1.7-1.6,2.4c-0.7,0.7-1.5,1.2-2.4,1.6c-0.9,0.4-1.9,0.6-3,0.7c-0.2,0-0.7,0.1-1.3,0.1h-1.7v0.1v1.5
		c0,0.6,0,1.1-0.1,1.7c0,0.6-0.1,1.1-0.2,1.5c-0.1,0.5-0.2,0.8-0.3,1c-0.2,0.4-0.6,0.7-1,1s-0.9,0.4-1.5,0.4c-0.4,0-0.9-0.1-1.2-0.3
		c-0.4-0.2-0.7-0.4-1-0.7c-0.3-0.3-0.5-0.6-0.7-1c-0.2-0.4-0.2-0.8-0.2-1.2v-19.1c0-0.2,0.1-0.3,0.3-0.5c0.2-0.1,0.4-0.2,0.6-0.2
		h4.6c0.9,0,1.9,0,2.8,0.1c0.9,0.1,1.8,0.2,2.7,0.5c1.4,0.3,2.7,1,3.7,2s1.7,2.3,1.9,3.9c0.1,0.4,0.1,0.8,0.1,1.3
		C89.6,119,89.4,120,89.1,120.9 M82.8,116.2c-0.4-0.4-0.8-0.7-1.4-0.7h-2.2v4.7h2.2c0.5,0,1-0.2,1.4-0.7c0.4-0.5,0.6-1,0.6-1.6
		C83.4,117.2,83.2,116.7,82.8,116.2"/>
	<path style="clip-path:url(#SVGID_00000079480847663112015860000008454080158564299197_);fill:#1B1237;" d="M111.1,127.4
		c-0.5,1.2-1.2,2.1-2.1,3c-0.9,0.8-1.9,1.4-3.1,1.9c-1.2,0.4-2.5,0.6-3.9,0.6c-1.4,0-2.7-0.2-3.9-0.6c-1.2-0.4-2.3-1-3.1-1.9
		c-0.8-0.9-1.6-1.8-2.1-3s-0.8-2.5-0.8-4v-12.8c0-0.2,0.1-0.3,0.3-0.5c0.2-0.1,0.4-0.2,0.7-0.2h4.5c0.2,0,0.5,0.1,0.6,0.2
		c0.2,0.1,0.3,0.3,0.3,0.5v12.9c0,1.2,0.3,2.2,1,2.9c0.7,0.7,1.5,1.1,2.6,1.1c1.1,0,1.9-0.4,2.6-1.1c0.6-0.7,1-1.7,1-2.9v-10.7
		c0-0.4,0.1-0.8,0.2-1.2c0.2-0.4,0.4-0.7,0.7-1c0.3-0.3,0.6-0.5,1-0.7c0.4-0.2,0.8-0.2,1.2-0.2c0.4,0,0.9,0.1,1.2,0.3
		c0.4,0.2,0.7,0.4,1,0.7c0.3,0.3,0.5,0.6,0.7,1c0.2,0.4,0.2,0.8,0.2,1.2v10.6C111.8,125,111.6,126.3,111.1,127.4"/>
	<path style="clip-path:url(#SVGID_00000079480847663112015860000008454080158564299197_);fill:#1B1237;" d="M125.8,119.1
		c0.9,0.3,1.7,0.8,2.5,1.3c0.8,0.5,1.4,1.2,1.9,2c0.5,0.8,0.7,1.7,0.7,2.9c0,0.8-0.1,1.5-0.4,2.3c-0.3,0.7-0.6,1.4-1.1,2.1
		c-0.8,1.1-1.9,2-3.1,2.5s-2.5,0.8-3.9,0.8c-0.5,0-1.1-0.1-1.8-0.2c-0.7-0.1-1.4-0.3-2.2-0.5c-0.7-0.2-1.5-0.4-2.1-0.7
		c-0.7-0.2-1.3-0.5-1.7-0.7c-0.2,0-0.3-0.1-0.4-0.3c-0.1-0.2-0.1-0.3-0.1-0.4c0.1-0.5,0.2-1,0.3-1.4c0.1-0.4,0.2-0.7,0.3-1.1
		c0-0.2,0.1-0.3,0.1-0.4c0-0.1,0.1-0.2,0.1-0.3c0-0.1,0.1-0.2,0.1-0.3c0-0.1,0.1-0.2,0.1-0.3v-0.2v0.1v-0.1c0-0.3,0.1-0.4,0.4-0.6
		c0.3-0.1,0.6-0.1,0.9,0c0.1,0,0.3,0.1,0.5,0.2c0.2,0.1,0.5,0.2,0.8,0.3c0.3,0.1,0.6,0.2,0.8,0.3c0.3,0.1,0.5,0.2,0.7,0.2
		c0.6,0.2,1.2,0.4,1.7,0.6c0.5,0.2,1.1,0.3,1.5,0.3c0.2,0,0.5-0.1,0.7-0.2c0.2-0.1,0.5-0.2,0.6-0.4c0.2-0.2,0.3-0.4,0.5-0.6
		c0.2-0.2,0.2-0.5,0.2-0.8c0-0.2-0.1-0.4-0.2-0.5c-0.1-0.1-0.3-0.3-0.5-0.4c-0.2-0.1-0.4-0.2-0.6-0.3c-0.2-0.1-0.4-0.2-0.5-0.2
		l-1.5-0.6c-0.8-0.3-1.6-0.6-2.3-0.9c-0.8-0.3-1.5-0.7-2.1-1.2c-0.6-0.5-1.1-1.1-1.5-1.8c-0.4-0.7-0.6-1.6-0.6-2.7
		c0-1.1,0.2-2.1,0.7-3c0.5-0.9,1.1-1.6,1.9-2.2c0.8-0.6,1.7-1,2.6-1.4c1-0.3,2-0.5,3-0.5c0.5,0,1.2,0.1,1.9,0.2
		c0.7,0.1,1.5,0.4,2.2,0.7c0.7,0.3,1.3,0.7,1.8,1.2s0.7,1.1,0.7,1.8c0,0.7-0.3,1.3-0.8,1.9c-0.5,0.5-1.2,0.8-2,0.8
		c-0.4,0-0.8-0.1-1.2-0.2c-0.4-0.1-0.7-0.3-1.1-0.4c-0.4-0.1-0.7-0.3-1.1-0.4c-0.4-0.1-0.8-0.2-1.2-0.2c-0.3,0-0.6,0.1-0.8,0.3
		c-0.3,0.2-0.4,0.5-0.4,0.9c0,0.2,0.1,0.4,0.2,0.6c0.1,0.2,0.3,0.3,0.4,0.4c0.2,0.1,0.4,0.2,0.6,0.3c0.2,0.1,0.4,0.2,0.6,0.2
		c0.1,0.1,0.2,0.1,0.3,0.1l-0.1-0.1h0.1C124,118.4,124.9,118.7,125.8,119.1"/>
	<path style="clip-path:url(#SVGID_00000079480847663112015860000008454080158564299197_);fill:#50AF55;" d="M98.9,55.9
		c-2.4-1.9-4.7-3.8-7-5.8c-1-0.8-1-0.9-0.4-2c1.4-2.5,2.4-5,3-7.8c0.9-4.2,0.8-8.4-0.6-12.6c-0.5-1.4-1.1-2.6-1.9-3.8
		c-0.2-0.4-0.4-0.7,0-1.1c1.1-1.1,2.1-2.3,3.3-3.5c1.7-1.7,3.4-3.4,5-5.2c1.7-2,1.3-4.4-0.9-5.7c-0.7-0.4-1.3-0.7-2-1.1
		c-1.7-0.9-3.5-0.8-5.2-0.1c-1.4,0.6-2.4,1.6-3.4,2.7l-5.9,5.7c-0.4,0.2-0.5,0.3-0.8,0.3c-0.4,0-0.7-0.1-1.1-0.2
		C66.3,13.4,58,22,58,22c-0.3,0.4-0.7,0.3-1.1,0c-1-0.8-2.1-1.6-3.1-2.4c-1.6-1.3-2.8-1.5-4.6-0.4c-1.1,0.7-1.8,1.8-2.7,2.7
		c-0.4,0.5-0.8,1-1.1,1.6c-0.9,1.5-0.8,3.1,0.4,4.4c1.1,1.1,2.2,2.1,3.3,3.2c0.4,0.4,0.5,0.8,0.2,1.2c-0.4,0.7-0.7,1.4-1,2
		c-2.6,5.9-3.3,11.9-1.2,18.1c0.3,0.9,0.1,1.5-0.5,2.1c-1.8,1.9-3.6,3.5-5,5.5c-1.3,1.7-1.3,3.7-0.1,5.4c0.4,0.6,0.9,1.2,1.4,1.8
		c1.3,1.5,3.4,1.6,4.9,0.2c1.6-1.4,3-3,4.5-4.4c1.8-1.7,1.2-1.7,3.5-0.5c3.7,1.8,7.6,2.4,11.6,2.1c4.3-0.4,8.2-1.9,12-4
		c1.1-0.6,1.2-0.6,2.1,0.3l1.6,1.4c1.5,1.4,3,2.8,4.6,4.1c2.1,1.8,5.3,1.9,7.5,0.3c1.5-1.1,2.8-2.3,4.1-3.6
		C101.3,61,101.3,57.8,98.9,55.9 M77.9,48.6c-5.5,5.7-15.3,7.8-20.4,2.2C52.1,45,54,37.6,57.9,32.3c3.9-5.3,13.6-11,21.1-5.2
		C86.1,32.6,83.4,42.9,77.9,48.6"/>
</g>
<g>
	<path class="st2" d="M9.5,163.3c0-7.3,0-14.6,0-21.8c40.5,0,81,0,121.4,0c0,7.3,0,14.5,0,21.8c-0.6,0-1.2,0-1.8,0
		C89.2,163.3,49.4,163.3,9.5,163.3z"/>
	<path class="st3" d="M9.5,163.3c39.9,0,79.7,0,119.6,0c0.6,0,1.2,0,1.8,0c0,0.1,0,0.2,0,0.3c-40.1,0-80.2,0-120.4,0
		C10.2,163.5,9.8,163.4,9.5,163.3z"/>
	<path class="st3" d="M130.9,163.5c0-0.1,0-0.2,0-0.3c0-7.3,0-14.5,0-21.8c0.1,0.1,0.2,0.2,0.2,0.2c0,7.2,0,14.4,0,21.6
		C131.2,163.4,131,163.4,130.9,163.5z"/>
</g>
<g>
	<path class="st4" d="M16.1,146.9h-4.2v-1.5h10.3v1.5h-4.2v12.5h-1.8V146.9z"/>
	<path class="st4" d="M24.5,145.4h8.1v1.5h-6.3v4.4h5.3v1.5h-5.3v5.1h6.5v1.5h-8.3V145.4z"/>
	<path class="st4" d="M43.3,159.4l-3.4-5.9h-2.5v5.9h-1.8v-14H40c0.7,0,1.4,0.1,2,0.2c0.6,0.1,1.1,0.4,1.5,0.7
		c0.4,0.3,0.8,0.7,1,1.2c0.2,0.5,0.4,1.1,0.4,1.8c0,1.1-0.3,2-0.9,2.6c-0.6,0.7-1.3,1.1-2.3,1.3l3.6,6.1H43.3z M37.4,152h2.3
		c1.1,0,1.9-0.2,2.5-0.7s0.9-1.1,0.9-2c0-0.9-0.3-1.6-0.9-1.9c-0.6-0.4-1.4-0.6-2.5-0.6h-2.3V152z"/>
	<path class="st4" d="M55.6,159.4l-3.4-5.9h-2.5v5.9h-1.8v-14h4.4c0.7,0,1.4,0.1,2,0.2c0.6,0.1,1.1,0.4,1.5,0.7
		c0.4,0.3,0.8,0.7,1,1.2c0.2,0.5,0.4,1.1,0.4,1.8c0,1.1-0.3,2-0.9,2.6c-0.6,0.7-1.3,1.1-2.3,1.3l3.6,6.1H55.6z M49.7,152h2.3
		c1.1,0,1.9-0.2,2.5-0.7s0.9-1.1,0.9-2c0-0.9-0.3-1.6-0.9-1.9c-0.6-0.4-1.4-0.6-2.5-0.6h-2.3V152z"/>
	<path class="st4" d="M60.2,145.4H62v14h-1.8V145.4z"/>
	<path class="st4" d="M68.6,146.9h-4.2v-1.5h10.3v1.5h-4.2v12.5h-1.8V146.9z"/>
	<path class="st4" d="M81.7,159.6c-0.9,0-1.7-0.2-2.4-0.5c-0.7-0.3-1.4-0.8-1.9-1.5c-0.5-0.6-0.9-1.4-1.2-2.3
		c-0.3-0.9-0.4-1.9-0.4-3c0-1.1,0.1-2.1,0.4-3c0.3-0.9,0.7-1.6,1.2-2.3c0.5-0.6,1.2-1.1,1.9-1.4s1.5-0.5,2.4-0.5
		c0.9,0,1.7,0.2,2.4,0.5c0.7,0.3,1.4,0.8,1.9,1.4c0.5,0.6,0.9,1.4,1.2,2.3c0.3,0.9,0.4,1.9,0.4,3c0,1.1-0.1,2.1-0.4,3
		c-0.3,0.9-0.7,1.7-1.2,2.3c-0.5,0.6-1.2,1.1-1.9,1.5C83.4,159.5,82.6,159.6,81.7,159.6z M81.7,158.1c0.6,0,1.2-0.1,1.7-0.4
		c0.5-0.3,0.9-0.7,1.3-1.2c0.4-0.5,0.6-1.1,0.8-1.8c0.2-0.7,0.3-1.5,0.3-2.4c0-0.9-0.1-1.7-0.3-2.3s-0.5-1.3-0.8-1.8
		c-0.4-0.5-0.8-0.9-1.3-1.1c-0.5-0.3-1.1-0.4-1.7-0.4c-0.6,0-1.2,0.1-1.7,0.4c-0.5,0.3-1,0.6-1.3,1.1c-0.4,0.5-0.6,1.1-0.8,1.8
		s-0.3,1.5-0.3,2.3c0,0.9,0.1,1.7,0.3,2.4c0.2,0.7,0.5,1.3,0.8,1.8c0.4,0.5,0.8,0.9,1.3,1.2C80.5,157.9,81.1,158.1,81.7,158.1z"/>
	<path class="st4" d="M90.6,145.4h1.8v14h-1.8V145.4z"/>
	<path class="st4" d="M103.8,159.4l-3.4-5.9h-2.5v5.9h-1.8v-14h4.4c0.7,0,1.4,0.1,2,0.2c0.6,0.1,1.1,0.4,1.5,0.7
		c0.4,0.3,0.8,0.7,1,1.2c0.2,0.5,0.4,1.1,0.4,1.8c0,1.1-0.3,2-0.9,2.6c-0.6,0.7-1.3,1.1-2.3,1.3l3.6,6.1H103.8z M97.9,152h2.3
		c1.1,0,1.9-0.2,2.5-0.7s0.9-1.1,0.9-2c0-0.9-0.3-1.6-0.9-1.9c-0.6-0.4-1.4-0.6-2.5-0.6h-2.3V152z"/>
	<path class="st4" d="M108.4,145.4h8.1v1.5h-6.3v4.4h5.3v1.5h-5.3v5.1h6.5v1.5h-8.3V145.4z"/>
	<path class="st4" d="M119.6,156.3c0.5,0.5,1.1,1,1.8,1.3c0.7,0.3,1.4,0.5,2.1,0.5c0.9,0,1.6-0.2,2.2-0.6c0.5-0.4,0.8-1,0.8-1.7
		c0-0.4-0.1-0.7-0.2-0.9s-0.3-0.5-0.5-0.6c-0.2-0.2-0.5-0.3-0.7-0.5c-0.3-0.1-0.6-0.3-0.9-0.4l-2-0.9c-0.3-0.1-0.7-0.3-1-0.5
		c-0.3-0.2-0.6-0.4-0.9-0.7c-0.3-0.3-0.5-0.6-0.7-1c-0.2-0.4-0.3-0.8-0.3-1.4c0-0.5,0.1-1,0.3-1.5c0.2-0.5,0.5-0.8,0.9-1.2
		c0.4-0.3,0.9-0.6,1.4-0.8c0.5-0.2,1.1-0.3,1.8-0.3c0.8,0,1.6,0.2,2.3,0.5c0.7,0.3,1.3,0.7,1.8,1.2l-0.9,1.2c-0.4-0.4-0.9-0.7-1.4-1
		c-0.5-0.2-1.1-0.4-1.8-0.4c-0.8,0-1.4,0.2-1.9,0.5c-0.5,0.4-0.7,0.9-0.7,1.5c0,0.3,0.1,0.6,0.2,0.9c0.1,0.2,0.3,0.4,0.5,0.6
		c0.2,0.2,0.5,0.3,0.7,0.5c0.3,0.1,0.6,0.3,0.8,0.4l2,0.9c0.4,0.2,0.8,0.4,1.1,0.6c0.4,0.2,0.7,0.5,0.9,0.8c0.3,0.3,0.5,0.6,0.6,1
		s0.2,0.8,0.2,1.4c0,0.6-0.1,1.1-0.3,1.6c-0.2,0.5-0.5,0.9-1,1.3c-0.4,0.4-0.9,0.6-1.5,0.9s-1.3,0.3-2,0.3c-1,0-1.9-0.2-2.7-0.6
		c-0.8-0.4-1.6-0.9-2.2-1.5L119.6,156.3z"/>
</g>
</svg>
