<?xml version="1.0" encoding="UTF-8" standalone="no"?>
<svg
   version="1.1"
   viewBox="0 0 142.5 27.899999"
   id="svg127"
   sodipodi:docname="logo_recolto_Baseline.svg"
   width="250"
   height="auto"
   inkscape:version="1.2.2 (b0a8486541, 2022-12-01)"
   xmlns:inkscape="http://www.inkscape.org/namespaces/inkscape"
   xmlns:sodipodi="http://sodipodi.sourceforge.net/DTD/sodipodi-0.dtd"
   xmlns="http://www.w3.org/2000/svg"
   xmlns:svg="http://www.w3.org/2000/svg">
  <sodipodi:namedview
     id="namedview129"
     pagecolor="#ffffff"
     bordercolor="#000000"
     borderopacity="0.25"
     inkscape:showpageshadow="2"
     inkscape:pageopacity="0.0"
     inkscape:pagecheckerboard="0"
     inkscape:deskcolor="#d1d1d1"
     showgrid="false"
     inkscape:zoom="4.0725097"
     inkscape:cx="99.938374"
     inkscape:cy="43.953241"
     inkscape:window-width="1854"
     inkscape:window-height="1011"
     inkscape:window-x="0"
     inkscape:window-y="0"
     inkscape:window-maximized="1"
     inkscape:current-layer="svg127" />
  <defs
     id="defs4">
    <style
       id="style2">
      .cls-1 {
        fill: #2d2e83;
      }

      .cls-2 {
        fill: #009fe3;
      }
    </style>
  </defs>
  <!-- Generator: Adobe Illustrator 28.7.1, SVG Export Plug-In . SVG Version: 1.2.0 Build 142)  -->
  <path
     class="cls-2"
     d="m 130.4,24.3 c 4.5,0 8.2,-3.7 8.2,-8.2 h -16.5 c 0,4.5 3.7,8.2 8.2,8.2 z"
     id="path6" />
  <path
     class="cls-1"
     d="M 0.1,4.4 C 0.1,3.9 0.3,3.6 0.8,3.6 h 9.8 c 1.1,0 2.1,0.2 3,0.6 0.9,0.4 1.8,1 2.5,1.7 0.7,0.7 1.3,1.5 1.7,2.5 0.4,0.9 0.6,1.9 0.6,3 0,1.1 -0.1,1.4 -0.3,2.1 -0.2,0.7 -0.5,1.3 -0.9,1.9 -0.4,0.6 -0.8,1.1 -1.3,1.6 -0.5,0.5 -1.1,0.9 -1.7,1.2 l 4.2,8.3 c 0,0.1 0,0.2 0.1,0.3 0.1,0.1 0,0.2 0,0.3 0,0.3 -0.2,0.5 -0.6,0.5 h -3.7 c -0.4,0 -0.6,-0.2 -0.8,-0.6 L 9.5,19.3 c -0.2,0 -0.4,0 -0.6,0 -0.2,0 -0.5,0 -0.8,0 H 4.6 v 7.6 c 0,0.5 -0.2,0.7 -0.7,0.7 H 0.7 c -0.2,0 -0.4,0 -0.5,-0.2 C 0.1,27.3 0,27.1 0,26.9 V 4.5 Z m 13.5,7 c 0,-0.5 0,-0.9 -0.3,-1.3 C 13.1,9.7 12.9,9.3 12.6,8.9 12.3,8.6 11.9,8.3 11.5,8.1 11.1,7.9 10.6,7.8 10.1,7.7 c -0.4,0 -0.7,0 -1.1,0 -0.4,0 -0.7,0 -1.1,0 H 4.7 v 7.5 h 4.9 c 0.2,0 0.4,0 0.6,0 0.5,0 1,-0.1 1.4,-0.4 0.4,-0.3 0.8,-0.5 1.1,-0.8 0.3,-0.3 0.5,-0.7 0.7,-1.2 0.2,-0.4 0.2,-0.9 0.2,-1.4 z"
     id="path8" />
  <path
     class="cls-1"
     d="m 38.8,25.3 c -0.9,0.8 -2,1.4 -3.1,1.9 -1.1,0.5 -2.4,0.7 -3.7,0.7 -1.3,0 -2.8,-0.3 -4.1,-0.8 -1.3,-0.5 -2.4,-1.3 -3.4,-2.3 -1,-1 -1.8,-2.1 -2.3,-3.4 -0.6,-1.3 -0.9,-2.7 -0.9,-4.1 0,-1.4 0.1,-1.9 0.4,-2.8 0.2,-0.9 0.6,-1.7 1,-2.5 0.4,-0.8 1,-1.5 1.6,-2.1 0.6,-0.6 1.3,-1.2 2.1,-1.7 0.8,-0.5 1.6,-0.8 2.5,-1.1 0.9,-0.3 1.8,-0.4 2.8,-0.4 1,0 1.6,0.1 2.4,0.3 0.8,0.2 1.5,0.5 2.3,0.8 0.7,0.4 1.4,0.8 2,1.3 0.6,0.5 1.2,1.1 1.6,1.8 0.6,0.9 1.1,1.9 1.4,2.9 0.3,1 0.5,2.2 0.5,3.5 0,1.3 0,0.6 0,0.8 0,0.2 0,0.4 -0.2,0.5 -0.1,0.1 -0.3,0.2 -0.5,0.3 -0.2,0.1 -0.5,0 -0.9,0 H 26 c 0.1,0.8 0.4,1.5 0.8,2.1 0.4,0.6 0.9,1.1 1.4,1.5 0.5,0.4 1.1,0.7 1.8,0.9 0.6,0.2 1.3,0.3 1.9,0.3 0.6,0 0.9,0 1.4,-0.1 0.4,0 0.9,-0.2 1.2,-0.4 0.4,-0.2 0.7,-0.3 1.1,-0.6 0.3,-0.2 0.6,-0.4 0.9,-0.7 0,0 0,0 0,0 0.1,-0.1 0.3,-0.2 0.4,-0.3 0.1,0 0.2,-0.1 0.4,-0.1 0.2,0 0.2,0 0.3,0 0.1,0 0.2,0.2 0.4,0.3 0.3,0.4 0.5,0.6 0.7,0.9 0.2,0.2 0.4,0.4 0.5,0.6 0.1,0.2 0.2,0.3 0.3,0.4 0.1,0.1 0,0.2 0,0.4 0,0.3 -0.2,0.6 -0.6,0.9 z M 31.7,10.8 c -0.6,0 -1.2,0.1 -1.9,0.3 -0.6,0.2 -1.2,0.5 -1.6,0.9 -0.4,0.4 -0.9,0.9 -1.3,1.4 -0.4,0.5 -0.6,1.1 -0.8,1.7 h 11.4 c -0.2,-0.7 -0.4,-1.3 -0.8,-1.8 -0.3,-0.5 -0.8,-1 -1.3,-1.4 -0.5,-0.4 -1.1,-0.7 -1.7,-0.9 -0.6,-0.2 -1.3,-0.3 -2,-0.3 z m 0,-10.1 C 31.7,0.5 31.9,0.3 32.1,0.2 32.3,0.1 32.4,0 32.6,0 h 2.9 c 0.2,0 0.3,0 0.4,0.1 0,0 0.1,0.2 0.1,0.3 0,0.1 0,0.2 0,0.3 0,0.1 0,0.2 0,0.3 L 34.5,4.4 C 34.3,4.9 34,5.1 33.6,5.1 h -2.5 c -0.2,0 -0.3,0 -0.4,-0.1 0,0 0,-0.2 0,-0.3 0,-0.1 0,-0.2 0,-0.3 0,-0.1 0,-0.2 0,-0.3 l 1.1,-3.3 z"
     id="path10" />
  <path
     class="cls-1"
     d="m 59.4,22.2 c 0.2,-0.1 0.3,-0.2 0.5,-0.2 0.1,0 0.2,0 0.3,0 0.2,0 0.3,0.1 0.5,0.3 l 0.4,0.5 1.1,1.6 c 0,0 0,0.2 0.1,0.2 0.1,0 0,0.2 0,0.2 0,0.2 0,0.3 -0.2,0.5 -0.1,0.1 -0.3,0.3 -0.5,0.4 -0.9,0.7 -1.9,1.2 -3,1.6 -1.1,0.4 -2.2,0.6 -3.5,0.6 -1.3,0 -1.9,-0.1 -2.8,-0.4 -0.9,-0.3 -1.7,-0.6 -2.5,-1.1 -0.8,-0.5 -1.5,-1 -2.1,-1.6 -0.6,-0.6 -1.2,-1.3 -1.7,-2.1 -0.5,-0.8 -0.8,-1.6 -1.1,-2.5 -0.3,-0.9 -0.4,-1.8 -0.4,-2.8 0,-1 0.1,-1.9 0.4,-2.8 0.3,-0.9 0.6,-1.7 1.1,-2.5 0.5,-0.8 1,-1.5 1.7,-2.1 0.6,-0.6 1.4,-1.2 2.1,-1.6 0.8,-0.5 1.6,-0.8 2.5,-1.1 0.9,-0.3 1.8,-0.4 2.8,-0.4 1,0 2.3,0.2 3.4,0.5 1.1,0.4 2,0.9 2.8,1.5 v 0 c 0.1,0.1 0.3,0.3 0.4,0.4 0.1,0.1 0.2,0.3 0.2,0.5 0,0.2 0,0.1 0,0.2 0,0.1 0,0.2 0,0.2 l -1.3,2 c -0.2,0.3 -0.5,0.5 -0.7,0.5 -0.2,0 -0.4,0 -0.6,-0.3 -0.5,-0.5 -1.2,-0.8 -1.9,-1.1 -0.7,-0.3 -1.5,-0.4 -2.3,-0.4 -0.8,0 -1.6,0.2 -2.4,0.5 -0.7,0.3 -1.4,0.8 -1.9,1.4 -0.6,0.6 -1,1.3 -1.3,2.1 -0.3,0.8 -0.5,1.6 -0.5,2.5 0,0.9 0.2,1.7 0.5,2.5 0.3,0.8 0.8,1.5 1.3,2 0.5,0.5 1.2,1 1.9,1.4 0.7,0.3 1.5,0.5 2.4,0.5 0.9,0 1.7,-0.2 2.4,-0.5 0.7,-0.3 1.3,-0.7 1.8,-1.1 z"
     id="path12" />
  <path
     class="cls-1"
     d="m 65,17.4 c 0,-1 0.1,-1.9 0.4,-2.8 0.3,-0.9 0.6,-1.8 1.1,-2.5 0.5,-0.8 1,-1.5 1.7,-2.1 0.6,-0.6 1.4,-1.2 2.1,-1.6 0.8,-0.5 1.6,-0.8 2.5,-1.1 0.9,-0.3 1.8,-0.4 2.8,-0.4 1,0 1.9,0.1 2.8,0.4 0.9,0.3 1.7,0.6 2.5,1.1 0.8,0.5 1.5,1 2.1,1.6 0.6,0.6 1.2,1.3 1.7,2.1 0.5,0.8 0.8,1.6 1.1,2.5 0.3,0.9 0.4,1.8 0.4,2.8 0,1 -0.1,1.9 -0.4,2.8 -0.3,0.9 -0.6,1.7 -1.1,2.5 -0.5,0.8 -1,1.5 -1.7,2.1 -0.6,0.6 -1.4,1.2 -2.1,1.6 -0.8,0.5 -1.6,0.8 -2.5,1.1 -0.9,0.3 -1.8,0.4 -2.8,0.4 -1,0 -1.9,-0.1 -2.8,-0.4 -0.9,-0.3 -1.7,-0.6 -2.5,-1.1 -0.8,-0.5 -1.5,-1 -2.1,-1.6 C 67.6,24.2 67,23.4 66.5,22.7 66,21.9 65.7,21.1 65.4,20.2 65.1,19.3 65,18.4 65,17.4 Z m 4.5,0 c 0,0.9 0.2,1.7 0.5,2.4 0.3,0.8 0.7,1.4 1.3,2 0.5,0.6 1.2,1 1.9,1.4 0.7,0.4 1.5,0.5 2.4,0.5 0.9,0 1.6,-0.2 2.4,-0.5 0.7,-0.3 1.3,-0.8 1.9,-1.4 0.5,-0.6 0.9,-1.2 1.2,-2 0.3,-0.8 0.4,-1.6 0.4,-2.4 0,-0.8 -0.1,-1.7 -0.4,-2.4 -0.3,-0.8 -0.7,-1.5 -1.2,-2 -0.5,-0.5 -1.2,-1.1 -1.9,-1.4 -0.7,-0.3 -1.5,-0.5 -2.4,-0.5 -0.9,0 -1.7,0.2 -2.4,0.5 -0.7,0.3 -1.4,0.8 -1.9,1.4 -0.5,0.6 -1,1.3 -1.3,2 -0.3,0.8 -0.5,1.6 -0.5,2.4 z"
     id="path14" />
  <path
     class="cls-1"
     d="M 89.8,2 C 89.8,1.7 89.8,1.5 90,1.3 90.2,1.1 90.4,1 90.7,1 h 2.8 c 0.2,0 0.4,0 0.6,0.3 0.2,0.2 0.3,0.4 0.3,0.7 v 24.6 c 0,0.3 0,0.6 -0.3,0.7 -0.2,0.2 -0.4,0.2 -0.7,0.2 h -2.7 c -0.3,0 -0.6,0 -0.7,-0.2 -0.1,-0.2 -0.2,-0.4 -0.2,-0.7 z"
     id="path16" />
  <path
     class="cls-1"
     d="m 106.3,27.5 c -0.8,0 -1.6,-0.1 -2.4,-0.4 -0.7,-0.2 -1.4,-0.6 -1.9,-1.1 -0.6,-0.5 -1,-1 -1.3,-1.7 -0.3,-0.7 -0.5,-1.5 -0.5,-2.3 V 11.1 h -1.9 c -0.3,0 -0.5,0 -0.7,-0.2 -0.2,-0.2 -0.2,-0.4 -0.2,-0.7 V 7.9 c 0,-0.3 0,-0.5 0.2,-0.7 C 97.8,7 98,7 98.3,7 h 1.9 c 0,-0.6 0,-1.1 0,-1.7 0,-0.6 0,-1.1 0,-1.7 0,-0.6 0,-0.4 0.2,-0.5 0.1,-0.1 0.3,-0.2 0.6,-0.3 0.2,0 0.4,-0.1 0.7,-0.2 0.3,0 0.5,-0.2 0.8,-0.3 0.3,0 0.5,-0.2 0.8,-0.2 0.3,0 0.5,0 0.6,0 0.3,0 0.5,0 0.7,0.3 0.1,0.2 0.2,0.4 0.2,0.7 0,0.7 0,1.3 0,2 0,0.7 0,1.3 0,2 h 2.3 c 0.3,0 0.5,0 0.6,0.2 0.1,0.2 0.2,0.4 0.2,0.7 v 2.2 c 0,0.3 0,0.6 -0.2,0.7 -0.2,0.1 -0.4,0.2 -0.6,0.2 h -2.3 v 3.1 c 0,0.4 0,0.7 0,1 0,0.3 0,0.7 0,1 v 3.1 c 0,0 0,0 0,0 0,0 0,0 0,0 v 2.1 c 0,0.7 0.1,1.2 0.4,1.5 0.3,0.3 0.7,0.5 1.4,0.5 0.7,0 0.4,0 0.5,0.2 0.1,0.2 0.2,0.4 0.2,0.6 v 2.2 c 0,0.3 0,0.5 -0.2,0.7 -0.2,0.2 -0.4,0.2 -0.7,0.2 z"
     id="path18" />
  <path
     class="cls-1"
     d="m 110.6,4.3 c 0,-0.3 0,-0.4 0.2,-0.5 0.2,0 0.4,-0.1 0.7,-0.1 h 2.1 c 0.1,0 0.2,0 0.3,0 0.1,0 0.2,0 0.3,0 0,0 0.2,0.1 0.2,0.2 0,0 0,0.2 0,0.3 V 7 c 0,0.9 -0.2,1.7 -0.5,2.4 -0.3,0.7 -0.9,1.3 -1.6,1.8 0,0 -0.1,0.1 -0.2,0.1 H 112 c -0.2,0 -0.3,0 -0.4,-0.1 0,0 -0.1,0 -0.3,-0.2 -0.1,0 -0.2,-0.2 -0.3,-0.3 -0.1,-0.1 -0.2,-0.2 -0.3,-0.3 0,-0.1 -0.1,-0.2 -0.1,-0.3 0,-0.1 0,-0.2 0.2,-0.3 0.1,-0.1 0.2,-0.2 0.4,-0.4 0.1,-0.1 0.2,-0.3 0.4,-0.5 0.1,-0.2 0.2,-0.4 0.2,-0.7 V 7.6 c 0,-0.2 0,-0.3 -0.3,-0.3 h -0.2 c -0.2,0 -0.4,0 -0.6,-0.1 C 110.5,7.1 110.5,7 110.5,6.8 V 4.2 Z"
     id="path20" />
  <path
     class="cls-1"
     d="m 118.1,15.6 c 0,-1.1 0.1,-2.2 0.4,-3.3 0.3,-1.1 0.7,-2 1.2,-2.9 0.5,-0.9 1.2,-1.7 1.9,-2.5 0.7,-0.8 1.6,-1.4 2.5,-1.9 0.9,-0.5 1.9,-0.9 2.9,-1.2 1,-0.3 2.1,-0.4 3.3,-0.4 1.2,0 2.2,0.1 3.3,0.4 1,0.3 2,0.7 2.9,1.2 0.9,0.5 1.7,1.2 2.5,1.9 0.8,0.7 1.4,1.6 1.9,2.5 0.5,0.9 0.9,1.9 1.2,2.9 0.3,1.1 0.4,2.1 0.4,3.3 0,1.2 -0.1,2.2 -0.4,3.3 -0.3,1 -0.7,2 -1.2,2.9 -0.5,0.9 -1.2,1.7 -1.9,2.5 -0.8,0.7 -1.6,1.4 -2.5,1.9 -0.9,0.5 -1.9,0.9 -2.9,1.2 -1,0.3 -2.1,0.4 -3.3,0.4 -1.2,0 -2.2,-0.1 -3.3,-0.4 -1,-0.3 -2,-0.7 -2.9,-1.2 -0.9,-0.5 -1.7,-1.2 -2.5,-1.9 -0.7,-0.7 -1.4,-1.6 -1.9,-2.5 -0.5,-0.9 -0.9,-1.9 -1.2,-2.9 -0.3,-1 -0.4,-2.1 -0.4,-3.3 z m 4.6,0 c 0,1.1 0.2,2.1 0.6,3 0.4,0.9 0.9,1.8 1.6,2.5 0.7,0.7 1.5,1.2 2.4,1.7 0.9,0.4 1.9,0.6 3,0.6 1.1,0 2.1,-0.2 3,-0.6 0.9,-0.4 1.7,-1 2.4,-1.7 0.7,-0.7 1.2,-1.5 1.6,-2.5 0.4,-0.9 0.6,-2 0.6,-3 0,-1 -0.2,-2.1 -0.6,-3 -0.4,-0.9 -0.9,-1.8 -1.6,-2.5 -0.7,-0.7 -1.5,-1.3 -2.4,-1.7 -0.9,-0.4 -1.9,-0.6 -3,-0.6 -1.1,0 -2.1,0.2 -3,0.6 -0.9,0.4 -1.7,1 -2.4,1.7 -0.7,0.7 -1.2,1.5 -1.6,2.5 -0.4,0.9 -0.6,2 -0.6,3 z"
     id="path22" />
  <path
     class="cls-2"
     d="m 133.1,9.1 c 0,1.5 -1.2,2.7 -2.7,2.7 -1.5,0 -2.7,-1.2 -2.7,-2.7 0,-1.5 2.7,-4.3 2.7,-4.3 0,0 2.7,2.8 2.7,4.3 z"
     id="path26" />
</svg>
