<?xml version="1.0" encoding="UTF-8"?>
<svg version="1.1" viewBox="0 0 25 25" xml:space="preserve" xmlns="http://www.w3.org/2000/svg"><g transform="translate(-155.7,-35)"><path class="cls-2" d="m168 55.9c4.5 0 8.2-3.7 8.2-8.2h-16.5c0 4.5 3.7 8.2 8.2 8.2z" fill="#009fe3"/><path class="cls-1" d="m155.7 47.2c0-1.1 0.1-2.2 0.4-3.3s0.7-2 1.2-2.9 1.2-1.7 1.9-2.5 1.6-1.4 2.5-1.9 1.9-0.9 2.9-1.2 2.1-0.4 3.3-0.4 2.2 0.1 3.3 0.4c1 0.3 2 0.7 2.9 1.2s1.7 1.2 2.5 1.9 1.4 1.6 1.9 2.5 0.9 1.9 1.2 2.9c0.3 1.1 0.4 2.1 0.4 3.3s-0.1 2.2-0.4 3.3c-0.3 1-0.7 2-1.2 2.9s-1.2 1.7-1.9 2.5c-0.8 0.7-1.6 1.4-2.5 1.9s-1.9 0.9-2.9 1.2-2.1 0.4-3.3 0.4-2.2-0.1-3.3-0.4c-1-0.3-2-0.7-2.9-1.2s-1.7-1.2-2.5-1.9c-0.7-0.7-1.4-1.6-1.9-2.5s-0.9-1.9-1.2-2.9-0.4-2.1-0.4-3.3zm4.6 0c0 1.1 0.2 2.1 0.6 3s0.9 1.8 1.6 2.5 1.5 1.2 2.4 1.7c0.9 0.4 1.9 0.6 3 0.6s2.1-0.2 3-0.6 1.7-1 2.4-1.7 1.2-1.5 1.6-2.5c0.4-0.9 0.6-2 0.6-3s-0.2-2.1-0.6-3-0.9-1.8-1.6-2.5-1.5-1.3-2.4-1.7-1.9-0.6-3-0.6-2.1 0.2-3 0.6-1.7 1-2.4 1.7-1.2 1.5-1.6 2.5c-0.4 0.9-0.6 2-0.6 3z" fill="#2d2e83"/><path class="cls-2" d="m170.7 40.7c0 1.5-1.2 2.7-2.7 2.7s-2.7-1.2-2.7-2.7 2.7-4.3 2.7-4.3 2.7 2.8 2.7 4.3z" fill="#009fe3"/></g></svg>